<?xml version="1.0" encoding="UTF-8" standalone="no"?>
<!DOCTYPE svg PUBLIC "-//W3C//DTD SVG 1.1//EN" "http://www.w3.org/Graphics/SVG/1.1/DTD/svg11.dtd">
<svg width="100%" height="100%" viewBox="0 0 1000 1000" version="1.1" xmlns="http://www.w3.org/2000/svg" xmlns:xlink="http://www.w3.org/1999/xlink" xml:space="preserve" xmlns:serif="http://www.serif.com/" style="fill-rule:evenodd;clip-rule:evenodd;stroke-linejoin:round;stroke-miterlimit:10;">
    <g transform="matrix(1,0,0,1,-1208,0)">
        <g id="Artboard2" transform="matrix(1,0,0,1,-0.333333,0)">
            <rect x="1208.33" y="0" width="1000" height="1000" style="fill:none;"/>
            <g transform="matrix(1,0,0,1,1208.33,5.68434e-14)">
                <circle cx="500" cy="500" r="500" style="fill:rgb(182,224,255);"/>
            </g>
            <g transform="matrix(0.561801,0,0,0.561801,801.915,-202.729)">
                <g transform="matrix(4.16667,0,0,4.16667,-5360.51,-1504.89)">
                    <g transform="matrix(156.408,0,0,-156.408,1650.28,718.369)">
                        <path d="M0.673,-0.219C0.796,-0.095 0.796,0.106 0.673,0.23C0.549,0.353 0.348,0.353 0.224,0.23C0.1,0.106 0.1,-0.095 0.224,-0.219C0.348,-0.343 0.549,-0.343 0.673,-0.219ZM0.856,0.177C0.9,0.07 0.9,-0.051 0.856,-0.158L0.856,-0.158C0.847,-0.18 0.836,-0.201 0.824,-0.222C0.824,-0.222 0.837,-0.235 0.856,-0.254C0.9,-0.298 0.974,-0.372 0.974,-0.372C1.009,-0.407 1.009,-0.462 0.974,-0.496C0.941,-0.53 0.887,-0.531 0.852,-0.499C0.852,-0.498 0.851,-0.497 0.85,-0.496L0.729,-0.375C0.714,-0.361 0.704,-0.351 0.704,-0.351C0.673,-0.374 0.639,-0.392 0.604,-0.405C0.501,-0.445 0.387,-0.445 0.285,-0.405C0.229,-0.384 0.176,-0.35 0.13,-0.305C0.073,-0.248 0.035,-0.179 0.015,-0.107C-0.025,0.042 0.014,0.207 0.13,0.324C0.294,0.487 0.553,0.497 0.728,0.352C0.739,0.343 0.749,0.334 0.759,0.324C0.786,0.296 0.809,0.266 0.828,0.234C0.838,0.216 0.847,0.198 0.855,0.179C0.855,0.179 0.856,0.178 0.856,0.177L0.856,0.177Z" style="fill:url(#_Linear1);fill-rule:nonzero;"/>
                    </g>
                    <g transform="matrix(1,0,0,1,1784.16,758.086)">
                        <path d="M0,-14.956L0,0C-2.905,-2.904 -4.977,-4.985 -5.014,-5.021C-3.062,-8.221 -1.384,-11.547 0,-14.956" style="fill:rgb(23,113,189);fill-rule:nonzero;"/>
                    </g>
                    <g transform="matrix(64.4003,0,0,-64.4003,1719.76,608.715)">
                        <path d="M1,1.272L1,-1.272C0.999,-1.271 0.999,-1.269 0.998,-1.267C0.979,-1.222 0.957,-1.178 0.933,-1.135C0.887,-1.057 0.831,-0.984 0.763,-0.917C0.739,-0.892 0.715,-0.87 0.689,-0.849L0.689,1.034L0,1.034C0,1.034 0,1.034 0,1.034C0.014,1.05 0.023,1.071 0.023,1.094L0.023,1.244C0.023,1.253 0.021,1.262 0.019,1.27L1,1.272Z" style="fill:url(#_Linear2);fill-rule:nonzero;"/>
                    </g>
                    <g transform="matrix(211.31,0,0,-211.31,1572.29,661.913)">
                        <path d="M0.998,-0.635C0.999,-0.635 0.999,-0.636 1,-0.636L0,-0.638L0,0.638L0.278,0.638C0.278,0.636 0.277,0.633 0.277,0.631L0.277,0.585C0.277,0.578 0.28,0.572 0.284,0.567C0.284,0.567 0.284,0.567 0.284,0.567L0.074,0.567L0.074,-0.567L0.58,-0.567L0.58,-0.567C0.656,-0.596 0.74,-0.596 0.816,-0.567L0.908,-0.567L0.908,-0.546L0.909,-0.545L0.998,-0.635Z" style="fill:url(#_Linear3);fill-rule:nonzero;"/>
                    </g>
                    <g transform="matrix(1,0,0,1,1764.27,777.964)">
                        <path d="M0,-0.879L-0.138,-0.751L-0.138,3.822L-19.566,3.822C-14.05,1.705 -8.752,-1.136 -3.821,-4.701C-3.821,-4.701 -2.282,-3.161 0,-0.879" style="fill:white;fill-rule:nonzero;"/>
                    </g>
                    <g transform="matrix(1,0,0,1,1638.83,712.684)">
                        <path d="M0,-101.444L0,-138.662C0,-140.046 -1.127,-141.164 -2.502,-141.164L-8.871,-141.164C-10.255,-141.164 -11.373,-140.046 -11.373,-138.662L-11.373,-101.48C-11.373,-98.786 -11.95,-96.696 -13.096,-95.221C-14.242,-93.736 -15.873,-92.994 -17.98,-92.994C-19.447,-92.994 -20.858,-93.324 -22.206,-93.993C-22.957,-94.369 -23.645,-94.827 -24.268,-95.368C-25.175,-96.146 -26.468,-96.257 -27.43,-95.56L-32.599,-91.794C-33.817,-90.904 -33.964,-89.173 -32.965,-88.054C-31.637,-86.579 -30.032,-85.369 -28.136,-84.424C-25.34,-83.041 -22.16,-82.344 -18.586,-82.344C-14.654,-82.344 -11.309,-83.096 -8.532,-84.59C-5.755,-86.084 -3.638,-88.256 -2.19,-91.115C-0.733,-93.965 0,-97.412 0,-101.444M54.127,-103.808L54.127,-120.304C54.127,-124.576 53.247,-128.333 51.487,-131.577C49.728,-134.812 47.235,-137.324 44.019,-139.101C40.802,-140.88 37.09,-141.759 32.865,-141.759C28.649,-141.759 24.937,-140.88 21.721,-139.101C18.504,-137.324 16.011,-134.812 14.251,-131.577C12.492,-128.333 11.612,-124.576 11.612,-120.304L11.612,-103.808C11.612,-99.538 12.492,-95.78 14.251,-92.536C16.011,-89.292 18.504,-86.78 21.721,-85.011C24.937,-83.233 28.649,-82.344 32.865,-82.344C37.09,-82.344 40.802,-83.233 44.019,-85.011C47.235,-86.78 49.728,-89.292 51.487,-92.536C53.247,-95.78 54.127,-99.538 54.127,-103.808M108.062,-98.804L108.062,-98.923C108.062,-101.48 107.594,-103.735 106.641,-105.687C105.696,-107.639 104.304,-109.215 102.479,-110.434C102.314,-110.535 102.159,-110.645 101.994,-110.746C100.372,-111.717 100.418,-113.99 102.003,-115.026C102.021,-115.035 102.04,-115.045 102.059,-115.053C103.763,-116.18 105.064,-117.61 105.963,-119.361C106.852,-121.111 107.301,-123.118 107.301,-125.391C107.301,-128.7 106.604,-131.532 105.22,-133.896C103.836,-136.26 101.802,-138.056 99.135,-139.303C96.468,-140.541 93.251,-141.164 89.484,-141.164L68.24,-141.164C66.856,-141.164 65.738,-140.046 65.738,-138.662L65.738,-85.442C65.738,-84.067 66.856,-82.95 68.24,-82.95L90.162,-82.95C93.93,-82.95 97.155,-83.563 99.841,-84.81C102.517,-86.048 104.561,-87.852 105.963,-90.235C107.364,-92.609 108.062,-95.468 108.062,-98.804M125.3,-170.546L125.3,-49.315C97.989,-71.988 57.398,-70.541 31.802,-44.943C13.555,-26.697 7.57,-0.825 13.857,22.417C16.918,33.744 22.902,44.458 31.802,53.348C38.913,60.459 47.189,65.711 56.015,69.093L56.015,69.102L-50.854,69.102L-50.854,-170.546L-6.479,-170.546C-5.407,-169.308 -3.831,-168.529 -2.071,-168.529L76.517,-168.529C78.276,-168.529 79.853,-169.308 80.925,-170.546L125.3,-170.546Z" style="fill:white;fill-rule:nonzero;"/>
                    </g>
                    <g transform="matrix(-0.707152,-0.707061,-0.707061,0.707152,1670.82,717.521)">
                        <path d="M-35.059,-84.648C-62.445,-84.647 -84.646,-62.443 -84.643,-35.057C-84.642,-7.672 -62.445,14.523 -35.059,14.521C-7.674,14.519 14.527,-7.684 14.526,-35.07C14.524,-62.456 -7.673,-84.651 -35.059,-84.648" style="fill:rgb(228,242,255);fill-rule:nonzero;"/>
                    </g>
                    <g transform="matrix(1,0,0,1,1746.9,587.495)">
                        <path d="M0,26.266L0,26.385C0,29.721 -0.697,32.58 -2.099,34.954C-3.501,37.337 -5.545,39.142 -8.221,40.379C-10.906,41.626 -14.132,42.24 -17.899,42.24L-33.846,42.24C-32.471,42.24 -31.353,41.122 -31.353,39.747L-31.353,31.673L-18.935,31.673C-16.433,31.673 -14.489,31.069 -13.105,29.849C-11.74,28.64 -11.053,26.935 -11.053,24.745L-11.053,24.625C-11.053,23.16 -11.355,21.904 -11.97,20.859C-12.583,19.824 -13.481,19.026 -14.673,18.485C-15.864,17.935 -17.285,17.661 -18.935,17.661L-31.353,17.661L-31.353,7.093L-18.935,7.093C-16.671,7.093 -14.911,6.516 -13.674,5.37C-12.428,4.216 -11.813,2.603 -11.813,0.523C-11.813,-1.347 -12.428,-2.804 -13.674,-3.84C-14.911,-4.884 -16.671,-5.407 -18.935,-5.407L-31.353,-5.407L-31.353,-13.472C-31.353,-14.856 -32.471,-15.974 -33.846,-15.974L-18.577,-15.974C-14.811,-15.974 -11.594,-15.351 -8.927,-14.114C-6.26,-12.867 -4.226,-11.071 -2.842,-8.707C-1.458,-6.342 -0.761,-3.51 -0.761,-0.202C-0.761,2.072 -1.21,4.079 -2.099,5.829C-2.997,7.579 -4.299,9.009 -6.003,10.136C-6.021,10.145 -6.04,10.155 -6.059,10.163C-7.644,11.2 -7.689,13.472 -6.067,14.444C-5.902,14.544 -5.747,14.655 -5.582,14.755C-3.758,15.974 -2.365,17.55 -1.421,19.502C-0.468,21.454 0,23.709 0,26.266" style="fill:rgb(2,0,49);fill-rule:nonzero;"/>
                    </g>
                    <g transform="matrix(1,0,0,1,1735.84,612.203)">
                        <path d="M0,-0.083L0,0.036C0,2.227 -0.687,3.932 -2.053,5.141C-3.437,6.36 -5.38,6.965 -7.882,6.965L-20.3,6.965L-20.3,-7.048L-7.882,-7.048C-6.232,-7.048 -4.812,-6.773 -3.62,-6.224C-2.429,-5.683 -1.53,-4.885 -0.917,-3.85C-0.303,-2.805 0,-1.549 0,-0.083" style="fill:white;fill-rule:nonzero;"/>
                    </g>
                    <g transform="matrix(1,0,0,1,1735.08,588.658)">
                        <path d="M0,-0.64C0,1.44 -0.614,3.053 -1.86,4.208C-3.098,5.353 -4.857,5.93 -7.121,5.93L-19.539,5.93L-19.539,-6.57L-7.121,-6.57C-4.857,-6.57 -3.098,-6.047 -1.86,-5.003C-0.614,-3.967 0,-2.51 0,-0.64" style="fill:white;fill-rule:nonzero;"/>
                    </g>
                    <g transform="matrix(1,0,0,1,1720.97,539.967)">
                        <path d="M0,-13.069C0.165,-12.538 0.248,-11.969 0.248,-11.392L0.248,-1.677C0.248,-0.211 -0.293,1.137 -1.209,2.163C-1.2,2.163 -1.209,2.172 -1.209,2.172C-2.281,3.409 -3.857,4.188 -5.617,4.188L-84.205,4.188C-85.965,4.188 -87.541,3.409 -88.613,2.172C-88.613,2.172 -88.622,2.163 -88.613,2.163C-89.529,1.137 -90.07,-0.211 -90.07,-1.677L-90.07,-11.392C-90.07,-11.914 -89.997,-12.427 -89.859,-12.913C-89.19,-15.406 -86.908,-17.257 -84.205,-17.257L-5.617,-17.257C-2.969,-17.257 -0.724,-15.488 0,-13.069" style="fill:rgb(121,192,253);fill-rule:nonzero;"/>
                    </g>
                    <g transform="matrix(1,0,0,1,1715.54,629.734)">
                        <path d="M0,-10.566L0,-2.492C0,-1.117 -1.118,0 -2.493,0L-3.666,0C-5.041,0 -6.159,-1.117 -6.159,-2.492L-6.159,-8.064C-6.159,-9.448 -5.041,-10.566 -3.666,-10.566L0,-10.566Z" style="fill:rgb(2,0,49);fill-rule:nonzero;"/>
                    </g>
                    <g transform="matrix(1,0,0,1,1715.54,627.232)">
                        <path d="M0,-22.077L0,-8.064L-3.666,-8.064C-5.041,-8.064 -6.159,-6.946 -6.159,-5.562L-6.159,0.01C-6.159,1.385 -5.041,2.502 -3.666,2.502L-8.469,2.502C-9.853,2.502 -10.971,1.385 -10.971,0.01L-10.971,-24.579L-6.159,-24.579C-6.159,-23.195 -5.041,-22.077 -3.666,-22.077L0,-22.077Z" style="fill:rgb(2,0,49);fill-rule:nonzero;"/>
                    </g>
                    <g transform="matrix(1,0,0,1,1715.54,605.155)">
                        <path d="M0,-10.567L0,0L-3.666,0C-5.041,0 -6.159,-1.118 -6.159,-2.502L-6.159,-8.074C-6.159,-9.449 -5.041,-10.567 -3.666,-10.567L0,-10.567Z" style="fill:rgb(2,0,49);fill-rule:nonzero;"/>
                    </g>
                    <g transform="matrix(1,0,0,1,1715.54,592.086)">
                        <path d="M0,-9.998L0,2.502L-3.666,2.502C-5.041,2.502 -6.159,3.62 -6.159,4.995L-6.159,10.567L-10.971,10.567L-10.971,-18.063C-10.971,-19.447 -9.853,-20.565 -8.469,-20.565L-3.666,-20.565C-5.041,-20.565 -6.159,-19.447 -6.159,-18.063L-6.159,-12.491C-6.159,-11.116 -5.041,-9.998 -3.666,-9.998L0,-9.998Z" style="fill:rgb(2,0,49);fill-rule:nonzero;"/>
                    </g>
                    <g transform="matrix(1,0,0,1,1715.54,579.586)">
                        <path d="M0,-5.563L0,2.502L-3.666,2.502C-5.041,2.502 -6.159,1.384 -6.159,0.009L-6.159,-5.563C-6.159,-6.947 -5.041,-8.065 -3.666,-8.065L-2.493,-8.065C-1.118,-8.065 0,-6.947 0,-5.563" style="fill:rgb(2,0,49);fill-rule:nonzero;"/>
                    </g>
                    <g transform="matrix(1,0,0,1,1681.6,592.105)">
                        <path d="M0,17.055L0,-0.001C0,-2.035 -0.412,-3.822 -1.229,-5.371C-2.044,-6.92 -3.198,-8.111 -4.692,-8.955C-6.187,-9.789 -7.918,-10.21 -9.897,-10.21C-11.868,-10.21 -13.601,-9.789 -15.095,-8.955C-16.598,-8.111 -17.752,-6.92 -18.559,-5.371C-19.374,-3.822 -19.786,-2.035 -19.786,-0.001L-19.786,17.055C-19.786,19.08 -19.374,20.868 -18.559,22.416C-17.752,23.965 -16.598,25.165 -15.095,25.999C-13.601,26.843 -11.868,27.264 -9.897,27.264C-7.918,27.264 -6.187,26.843 -4.692,25.999C-3.198,25.165 -2.044,23.965 -1.229,22.416C-0.412,20.868 0,19.08 0,17.055M11.364,0.275L11.364,16.771C11.364,21.041 10.484,24.799 8.725,28.043C6.965,31.287 4.473,33.799 1.256,35.568C-1.961,37.346 -5.673,38.235 -9.897,38.235C-14.113,38.235 -17.825,37.346 -21.042,35.568C-24.259,33.799 -26.752,31.287 -28.512,28.043C-30.271,24.799 -31.15,21.041 -31.15,16.771L-31.15,0.275C-31.15,-3.997 -30.271,-7.754 -28.512,-10.998C-26.752,-14.233 -24.259,-16.745 -21.042,-18.522C-17.825,-20.3 -14.113,-21.18 -9.897,-21.18C-5.673,-21.18 -1.961,-20.3 1.256,-18.522C4.473,-16.745 6.965,-14.233 8.725,-10.998C10.484,-7.754 11.364,-3.997 11.364,0.275" style="fill:rgb(2,0,49);fill-rule:nonzero;"/>
                    </g>
                    <g transform="matrix(1,0,0,1,1681.6,609.161)">
                        <path d="M0,-17.056L0,0C0,2.025 -0.412,3.812 -1.229,5.361C-2.044,6.91 -3.198,8.11 -4.692,8.944C-6.187,9.788 -7.918,10.209 -9.897,10.209C-11.868,10.209 -13.601,9.788 -15.095,8.944C-16.598,8.11 -17.752,6.91 -18.559,5.361C-19.374,3.812 -19.786,2.025 -19.786,0L-19.786,-17.056C-19.786,-19.09 -19.374,-20.877 -18.559,-22.426C-17.752,-23.975 -16.598,-25.166 -15.095,-26.01C-13.601,-26.844 -11.868,-27.265 -9.897,-27.265C-7.918,-27.265 -6.187,-26.844 -4.692,-26.01C-3.198,-25.166 -2.044,-23.975 -1.229,-22.426C-0.412,-20.877 0,-19.09 0,-17.056" style="fill:white;fill-rule:nonzero;"/>
                    </g>
                    <g transform="matrix(1,0,0,1,1638.83,627.837)">
                        <path d="M0,-53.815L0,-16.597C0,-12.565 -0.733,-9.119 -2.19,-6.268C-3.638,-3.409 -5.755,-1.237 -8.532,0.257C-11.309,1.75 -14.654,2.502 -18.586,2.502C-22.16,2.502 -25.34,1.806 -28.136,0.422C-30.032,-0.522 -31.637,-1.732 -32.965,-3.208C-33.964,-4.326 -33.817,-6.057 -32.599,-6.947L-27.43,-10.713C-26.468,-11.41 -25.175,-11.299 -24.268,-10.521C-23.645,-9.98 -22.957,-9.522 -22.206,-9.146C-20.858,-8.477 -19.447,-8.147 -17.98,-8.147C-15.873,-8.147 -14.242,-8.889 -13.096,-10.375C-11.95,-11.849 -11.373,-13.939 -11.373,-16.633L-11.373,-53.815C-11.373,-55.199 -10.255,-56.317 -8.871,-56.317L-2.502,-56.317C-1.127,-56.317 0,-55.199 0,-53.815" style="fill:rgb(2,0,49);fill-rule:nonzero;"/>
                    </g>
                </g>
                <g transform="matrix(4.16667,0,0,4.16667,1805.19,1259.14)">
                    <path d="M0,-121.23L44.366,-121.23L44.366,0" style="fill:none;fill-rule:nonzero;stroke:white;stroke-width:3.56px;"/>
                </g>
                <g transform="matrix(4.16667,0,0,4.16667,1701.36,754.019)">
                    <path d="M0,239.647L-106.869,239.647L-106.869,0L-62.503,0" style="fill:none;fill-rule:nonzero;stroke:white;stroke-width:3.56px;"/>
                </g>
                <g transform="matrix(4.16667,0,0,4.16667,1990.04,1752.55)">
                    <path d="M0,-4.573L0,0L-19.429,0" style="fill:none;fill-rule:nonzero;stroke:white;stroke-width:3.56px;"/>
                </g>
                <g transform="matrix(4.16667,0,0,4.16667,1805.15,681.468)">
                    <path d="M0,17.412C-1.072,18.649 -2.648,19.429 -4.408,19.429L-82.996,19.429C-84.756,19.429 -86.332,18.649 -87.404,17.412C-87.404,17.412 -87.413,17.403 -87.404,17.403C-88.32,16.377 -88.861,15.029 -88.861,13.563L-88.861,3.848C-88.861,3.326 -88.788,2.813 -88.65,2.327C-87.981,-0.166 -85.699,-2.017 -82.996,-2.017L-4.408,-2.017C-1.76,-2.017 0.485,-0.248 1.209,2.171C1.374,2.703 1.457,3.271 1.457,3.848L1.457,13.563C1.457,15.029 0.916,16.377 0,17.403C0.009,17.403 0,17.412 0,17.412Z" style="fill:none;fill-rule:nonzero;stroke:rgb(2,0,49);stroke-width:3.56px;"/>
                </g>
                <g transform="matrix(0,4.16667,4.16667,0,2073.64,1373.02)">
                    <path d="M-0.037,-0.037L0.037,-0.037" style="fill:none;fill-rule:nonzero;stroke:rgb(2,0,49);stroke-width:3.56px;"/>
                </g>
                <g transform="matrix(4.16667,0,0,4.16667,1810.15,1372.33)">
                    <path d="M0,-163.635L0.009,-163.635L63.2,-163.754L63.2,0.119" style="fill:none;fill-rule:nonzero;stroke:rgb(2,0,49);stroke-width:3.56px;"/>
                </g>
                <g transform="matrix(4.16667,0,0,4.16667,2071.15,692.768)">
                    <path d="M0,268.947L-211.311,269.332L-211.311,-0.275L-152.5,-0.385" style="fill:none;fill-rule:nonzero;stroke:rgb(2,0,49);stroke-width:3.56px;"/>
                </g>
                <g transform="matrix(0,4.16667,4.16667,0,2104.64,1622.64)">
                    <path d="M-7.478,-7.478L7.478,-7.478" style="fill:none;fill-rule:nonzero;stroke:rgb(2,0,49);stroke-width:3.56px;"/>
                </g>
                <g transform="matrix(-2.94632,2.94624,2.94624,2.94632,1849.02,1506.08)">
                    <path d="M-43.786,-18.137L7.512,-18.137" style="fill:none;fill-rule:nonzero;stroke:rgb(182,224,255);stroke-width:10.68px;stroke-linecap:round;stroke-linejoin:miter;"/>
                </g>
                <g transform="matrix(-2.94628,2.94628,2.94628,2.94628,1882.59,1593.59)">
                    <path d="M-52.901,-21.913L9.076,-21.913" style="fill:none;fill-rule:nonzero;stroke:rgb(182,224,255);stroke-width:10.68px;stroke-linecap:round;stroke-linejoin:miter;"/>
                </g>
                <g transform="matrix(-2.94647,-2.94609,-2.94609,2.94647,1601.24,1484.78)">
                    <ellipse cx="-35.059" cy="-35.064" rx="49.587" ry="49.587" style="fill:none;stroke:rgb(2,0,49);stroke-width:5.34px;stroke-linejoin:miter;"/>
                </g>
                <g transform="matrix(4.16667,0,0,4.16667,2055.38,1164.67)">
                    <path d="M0,151.923C-4.16,147.762 -11.199,140.733 -15.543,136.389C-17.825,134.107 -19.364,132.567 -19.364,132.567C-24.295,136.132 -29.593,138.973 -35.109,141.09C-51.12,147.231 -68.955,147.231 -84.966,141.081C-93.791,137.699 -102.067,132.447 -109.179,125.336C-118.078,116.446 -124.063,105.733 -127.123,94.405C-133.41,71.163 -127.426,45.291 -109.179,27.045C-83.582,1.447 -42.991,0 -15.681,22.673C-14.031,24.038 -12.437,25.496 -10.888,27.045C-6.571,31.361 -2.941,36.109 0,41.14" style="fill:none;fill-rule:nonzero;stroke:rgb(2,0,49);stroke-width:5.34px;stroke-linejoin:miter;"/>
                </g>
                <g transform="matrix(4.16667,0,0,4.16667,2073.48,1834.23)">
                    <path d="M0,-58.26C-1.384,-54.851 -3.062,-51.525 -5.014,-48.325C-4.977,-48.289 -2.905,-46.208 0,-43.304C6.9,-36.403 18.503,-24.809 18.503,-24.809C23.864,-19.439 23.864,-10.732 18.503,-5.37C13.261,-0.128 4.829,0 -0.56,-5.004C-0.687,-5.123 -0.816,-5.242 -0.944,-5.37C-0.944,-5.37 -2.301,-6.718 -4.345,-8.771" style="fill:none;fill-rule:nonzero;stroke:rgb(2,0,49);stroke-width:5.34px;stroke-linejoin:miter;"/>
                </g>
                <g transform="matrix(0,4.16667,4.16667,0,2073.5,1591.46)">
                    <path d="M-0.005,-0.005L0.005,-0.005" style="fill:none;fill-rule:nonzero;stroke:rgb(2,0,49);stroke-width:3.56px;"/>
                </g>
                <g transform="matrix(0,4.16667,4.16667,0,2197.01,1467.91)">
                    <path d="M-22.81,-29.648C-6.031,-22.821 12.877,-22.811 29.648,-29.648" style="fill:none;fill-rule:nonzero;stroke:rgb(2,0,49);stroke-width:5.34px;stroke-linejoin:miter;"/>
                </g>
                <g transform="matrix(0,4.16667,4.16667,0,2073.5,1372.85)">
                    <path d="M-0.005,-0.005L0.005,-0.005" style="fill:none;fill-rule:nonzero;stroke:rgb(2,0,49);stroke-width:3.56px;"/>
                </g>
                <g transform="matrix(1.57099,3.85916,3.85916,-1.57099,2073.74,1371.59)">
                    <path d="M-0.114,-0.169C0.005,-0.168 0.133,-0.171 0.252,-0.169" style="fill:none;fill-rule:nonzero;stroke:rgb(2,0,49);stroke-width:5.34px;stroke-linejoin:miter;"/>
                </g>
                <g transform="matrix(1.85211,3.7324,3.7324,-1.85211,2076.07,1338.05)">
                    <path d="M-2.629,-4.239C0.539,-4.02 3.699,-4.023 6.836,-4.239" style="fill:none;fill-rule:nonzero;stroke:rgb(2,0,49);stroke-width:5.34px;stroke-linejoin:miter;"/>
                </g>
            </g>
        </g>
    </g>
    <defs>
        <linearGradient id="_Linear1" x1="0" y1="0" x2="1" y2="0" gradientUnits="userSpaceOnUse" gradientTransform="matrix(1,0,0,-1,0,-0.0341978)"><stop offset="0" style="stop-color:rgb(121,192,253);stop-opacity:1"/><stop offset="1" style="stop-color:rgb(182,224,255);stop-opacity:1"/></linearGradient>
        <linearGradient id="_Linear2" x1="0" y1="0" x2="1" y2="0" gradientUnits="userSpaceOnUse" gradientTransform="matrix(1,0,0,-1,0,-3.31365e-06)"><stop offset="0" style="stop-color:rgb(23,115,192);stop-opacity:1"/><stop offset="0" style="stop-color:rgb(23,113,189);stop-opacity:1"/><stop offset="1" style="stop-color:rgb(31,150,252);stop-opacity:1"/></linearGradient>
        <linearGradient id="_Linear3" x1="0" y1="0" x2="1" y2="0" gradientUnits="userSpaceOnUse" gradientTransform="matrix(1,0,0,-1,0,3.98561e-06)"><stop offset="0" style="stop-color:rgb(23,115,192);stop-opacity:1"/><stop offset="0" style="stop-color:rgb(23,113,189);stop-opacity:1"/><stop offset="1" style="stop-color:rgb(31,150,252);stop-opacity:1"/></linearGradient>
    </defs>
</svg>
