<?xml version="1.0" encoding="UTF-8" standalone="no"?>
<!DOCTYPE svg PUBLIC "-//W3C//DTD SVG 1.1//EN" "http://www.w3.org/Graphics/SVG/1.1/DTD/svg11.dtd">
<svg width="100%" height="100%" viewBox="0 0 1000 1000" version="1.1" xmlns="http://www.w3.org/2000/svg" xmlns:xlink="http://www.w3.org/1999/xlink" xml:space="preserve" xmlns:serif="http://www.serif.com/" style="fill-rule:evenodd;clip-rule:evenodd;stroke-miterlimit:10;">
    <rect id="Artboard1" x="0" y="0" width="1000" height="1000" style="fill:none;"/>
    <g id="Artboard11" serif:id="Artboard1">
        <circle cx="500" cy="500" r="500" style="fill:rgb(182,224,255);"/>
        <g transform="matrix(0.473809,0,0,0.473809,323.452,231.071)">
            <g transform="matrix(309.415,0,0,-309.415,-104.223,420.726)">
                <path d="M1,-0.352L0,-0.352L0,0.352L1,-0.352Z" style="fill:url(#_Linear1);fill-rule:nonzero;"/>
            </g>
            <g transform="matrix(4.16667,0,0,4.16667,-104.222,529.718)">
                <path d="M0,-52.315L0,0L74.26,0L0,-52.315Z" style="fill:none;fill-rule:nonzero;stroke:rgb(2,0,49);stroke-width:6.33px;"/>
            </g>
            <g transform="matrix(0,4.16667,4.16667,0,909.525,-9.50143)">
                <path d="M-40.815,-40.815L40.815,-40.815" style="fill:none;fill-rule:nonzero;stroke:rgb(2,0,49);stroke-width:6.33px;"/>
            </g>
            <g transform="matrix(4.16667,0,0,4.16667,583.73,-122.241)">
                <path d="M0,49.071C0,49.071 1.834,17.427 11.924,11.924C22.013,6.421 29.809,55.032 48.611,36.23C67.414,17.427 72.917,-5.961 72.917,-5.961" style="fill:none;fill-rule:nonzero;stroke:rgb(2,0,49);stroke-width:4.22px;"/>
            </g>
            <g transform="matrix(4.77632,0,0,4.77632,-5207.74,-2538.89)">
                <g transform="matrix(48.3671,0,0,48.3671,1050.53,557.66)">
                    <path d="M0.389,-0.321C0.389,-0.362 0.378,-0.394 0.356,-0.417C0.334,-0.439 0.303,-0.451 0.262,-0.451C0.238,-0.451 0.215,-0.447 0.191,-0.439C0.168,-0.431 0.148,-0.42 0.13,-0.406L0.079,-0.441C0.098,-0.464 0.123,-0.482 0.155,-0.495C0.186,-0.508 0.221,-0.514 0.259,-0.514C0.301,-0.514 0.337,-0.507 0.367,-0.492C0.397,-0.477 0.42,-0.456 0.436,-0.427C0.451,-0.399 0.459,-0.365 0.459,-0.326L0.459,0L0.389,0L0.389,-0.321ZM0.24,0.007C0.181,0.007 0.135,-0.006 0.103,-0.034C0.07,-0.061 0.054,-0.1 0.054,-0.149C0.054,-0.197 0.069,-0.234 0.098,-0.26C0.128,-0.287 0.17,-0.3 0.225,-0.3L0.393,-0.3L0.4,-0.234L0.225,-0.234C0.193,-0.234 0.167,-0.227 0.15,-0.212C0.132,-0.197 0.123,-0.176 0.123,-0.149C0.123,-0.121 0.134,-0.099 0.156,-0.083C0.179,-0.067 0.21,-0.059 0.251,-0.059C0.295,-0.059 0.328,-0.063 0.353,-0.072C0.377,-0.081 0.389,-0.093 0.389,-0.109L0.399,-0.043C0.389,-0.033 0.376,-0.024 0.36,-0.016C0.344,-0.008 0.326,-0.002 0.306,0.001C0.286,0.005 0.264,0.007 0.24,0.007Z" style="fill-rule:nonzero;"/>
                </g>
                <g transform="matrix(50,0,0,50,1104.18,604.449)">
                    <path d="M0.283,0.007C0.234,0.007 0.193,-0.001 0.161,-0.017C0.128,-0.033 0.104,-0.058 0.088,-0.09C0.072,-0.123 0.063,-0.164 0.063,-0.213L0.063,-0.296C0.063,-0.345 0.072,-0.385 0.088,-0.417C0.104,-0.45 0.128,-0.474 0.161,-0.49C0.193,-0.506 0.234,-0.514 0.283,-0.514C0.31,-0.514 0.336,-0.511 0.358,-0.505C0.381,-0.499 0.402,-0.49 0.419,-0.478C0.437,-0.466 0.453,-0.451 0.466,-0.433L0.414,-0.387C0.397,-0.408 0.377,-0.423 0.356,-0.433C0.334,-0.444 0.31,-0.449 0.284,-0.449C0.234,-0.449 0.196,-0.436 0.171,-0.411C0.146,-0.386 0.134,-0.347 0.134,-0.296L0.134,-0.213C0.134,-0.161 0.146,-0.122 0.171,-0.097C0.196,-0.071 0.234,-0.058 0.284,-0.058C0.312,-0.058 0.337,-0.063 0.36,-0.073C0.382,-0.083 0.403,-0.097 0.421,-0.117L0.466,-0.072C0.453,-0.054 0.437,-0.04 0.419,-0.028C0.402,-0.016 0.381,-0.007 0.358,-0.001C0.336,0.004 0.31,0.007 0.283,0.007Z" style="fill-rule:nonzero;"/>
                </g>
            </g>
            <g transform="matrix(4.77632,0,0,4.77632,-5224.75,-2554.31)">
                <g transform="matrix(50,0,0,50,1078.43,584.099)">
                    <path d="M0.305,0.007C0.264,0.007 0.23,0.001 0.202,-0.013C0.174,-0.026 0.154,-0.049 0.142,-0.08L0.148,-0.186C0.148,-0.163 0.154,-0.142 0.164,-0.122C0.174,-0.101 0.189,-0.085 0.209,-0.072C0.229,-0.06 0.251,-0.053 0.277,-0.053C0.32,-0.053 0.352,-0.066 0.375,-0.091C0.399,-0.116 0.41,-0.152 0.41,-0.197L0.41,-0.307C0.41,-0.354 0.399,-0.39 0.375,-0.415C0.352,-0.441 0.32,-0.454 0.277,-0.454C0.251,-0.454 0.229,-0.447 0.209,-0.435C0.189,-0.422 0.174,-0.406 0.164,-0.386C0.154,-0.366 0.148,-0.346 0.148,-0.324L0.138,-0.421C0.156,-0.454 0.179,-0.478 0.208,-0.492C0.237,-0.507 0.271,-0.514 0.31,-0.514C0.346,-0.514 0.377,-0.506 0.402,-0.49C0.428,-0.474 0.447,-0.45 0.46,-0.419C0.474,-0.389 0.48,-0.351 0.48,-0.308L0.48,-0.197C0.48,-0.154 0.474,-0.118 0.46,-0.087C0.446,-0.056 0.426,-0.033 0.4,-0.017C0.374,-0.001 0.342,0.007 0.305,0.007ZM0.078,-0.71L0.148,-0.71L0.148,0L0.078,0L0.078,-0.71Z" style="fill-rule:nonzero;"/>
                </g>
            </g>
            <g transform="matrix(4.16667,0,0,4.16667,-4567.28,-2219.85)">
                <g transform="matrix(37.0655,0,0,-37.0655,1174.72,521.775)">
                    <path d="M0.978,-0.783C1.04,-0.89 0.962,-1.025 0.838,-1.025L0,-1.025L0.174,-0.021L0.174,1.025L0.378,1.025C0.455,1.025 0.518,0.962 0.518,0.885L0.518,0.014C0.611,-0.146 0.978,-0.783 0.978,-0.783Z" style="fill:url(#_Linear2);fill-rule:nonzero;"/>
                </g>
                <g transform="matrix(1,0,0,1,1181.18,559.772)">
                    <path d="M0,-75.511L0,-37.205L-6.463,0L-6.474,0L-5.457,-11.771L-4.815,-19.293L-4.174,-26.815L0,-75.511Z" style="fill:rgb(155,175,57);fill-rule:nonzero;"/>
                </g>
                <g transform="matrix(1,0,0,1,1181.18,532.957)">
                    <path d="M0,-49.178L0,-48.697L-4.174,0L-6.474,-0.193L-13.13,-0.193C-10.401,-4.923 -7.833,-9.363 -6.474,-11.717L-6.474,-43.989C-6.474,-46.845 -4.142,-49.178 -1.284,-49.178L0,-49.178Z" style="fill:rgb(155,175,57);fill-rule:nonzero;"/>
                </g>
                <g transform="matrix(1,0,0,1,1177,540.285)">
                    <path d="M0,-7.328L-0.642,0.193L-2.3,0.055L-13.332,0.055C-11.931,-2.374 -10.411,-4.985 -8.956,-7.521L-2.3,-7.521L0,-7.328Z" style="fill:rgb(155,175,57);fill-rule:nonzero;"/>
                </g>
                <g transform="matrix(1,0,0,1,1176.36,547.862)">
                    <path d="M0,-7.383L-0.642,0.139L-1.658,0.054L-17.056,0.054C-16.071,-1.658 -14.713,-4.023 -13.183,-6.665C-13.022,-6.944 -12.851,-7.233 -12.69,-7.522L-1.658,-7.522L0,-7.383Z" style="fill:rgb(155,175,57);fill-rule:nonzero;"/>
                </g>
                <g transform="matrix(1,0,0,1,1175.72,559.687)">
                    <path d="M0,-11.686L-1.017,0.085L-12.895,0.085C-17.506,0.085 -20.384,-4.913 -18.073,-8.904C-18.073,-8.904 -17.441,-9.996 -16.425,-11.771L-1.017,-11.771L0,-11.686Z" style="fill:rgb(155,175,57);fill-rule:nonzero;"/>
                </g>
                <g transform="matrix(1,0,0,1,1174.72,559.814)">
                    <path d="M0,-0.043L-0.011,0L-0.011,-0.043L0,-0.043Z" style="fill:rgb(155,175,57);fill-rule:nonzero;"/>
                </g>
            </g>
            <g transform="matrix(4.16667,0,0,4.16667,263.165,-154.708)">
                <path d="M0,52.282C0.984,50.569 2.343,48.205 3.873,45.562C4.033,45.284 4.205,44.995 4.365,44.706C5.767,42.277 7.286,39.666 8.741,37.13C11.47,32.401 14.038,27.96 15.397,25.606L15.397,-6.665C15.397,-9.522 17.729,-11.855 20.587,-11.855L29.414,-11.855C32.271,-11.855 34.604,-9.522 34.604,-6.665L34.604,25.606C38.038,31.566 51.659,55.149 51.659,55.149C53.971,59.14 51.082,64.137 46.47,64.137L3.52,64.137C-1.092,64.137 -3.97,59.14 -1.659,55.149C-1.659,55.149 -1.027,54.057 -0.011,52.282" style="fill:none;fill-rule:nonzero;stroke:rgb(2,0,49);stroke-width:6.33px;"/>
            </g>
            <g transform="matrix(4.16667,0,0,4.16667,263.12,63.134)">
                <path d="M0,0L15.408,0" style="fill:none;fill-rule:nonzero;stroke:rgb(2,0,49);stroke-width:6.33px;"/>
            </g>
            <g transform="matrix(4.16667,0,0,4.16667,281.354,31.5665)">
                <path d="M0,0L11.032,0" style="fill:none;fill-rule:nonzero;stroke:rgb(2,0,49);stroke-width:6.33px;"/>
            </g>
            <g transform="matrix(4.16667,0,0,4.16667,299.587,0.00149048)">
                <path d="M0,0L6.656,0" style="fill:none;fill-rule:nonzero;stroke:rgb(2,0,49);stroke-width:6.33px;"/>
            </g>
            <g transform="matrix(2.03541,3.63569,3.63569,-2.03541,447.127,-21.3272)">
                <g>
                    <path d="M-6.527,-11.134L18.993,-11.134" style="fill:none;fill-rule:nonzero;stroke:white;stroke-width:6.33px;stroke-linecap:round;"/>
                </g>
            </g>
            <g transform="matrix(4.16667,0,0,4.16667,-4567.28,-2219.85)">
                <g transform="matrix(1,0,0,1,1296.29,620.04)">
                    <path d="M0,-4.438C1.819,-3.806 1.819,-1.235 0,-0.614L-26.761,8.66L-26.742,8.706L-26.788,12.381L-27.911,12.363L-72.93,25.331C-74.685,25.832 -76.578,25.832 -78.332,25.331L-123.165,12.418L-124.075,12.418L-124.075,8.724L-130.758,6.404L-130.749,5.996L-130.749,5.93C-130.758,5.272 -131.314,4.751 -131.974,4.761C-132.503,4.78 -132.939,5.123 -133.078,5.606L-151.021,-0.614C-152.831,-1.235 -152.831,-3.806 -151.021,-4.438L-78.268,-29.648C-76.485,-30.27 -74.536,-30.27 -72.754,-29.648L0,-4.438Z" style="fill:rgb(2,0,49);fill-rule:nonzero;"/>
                </g>
                <g transform="matrix(120.147,0,0,-120.147,1166.68,785.291)">
                    <path d="M0.987,0.254C1.016,0.064 0.987,-0.573 0.987,-0.573L0.018,-0.573C0.017,-0.571 0.017,-0.557 0.017,-0.554C-0.009,0.024 -0.003,0.111 0.018,0.243C0.035,0.35 0.111,0.45 0.173,0.516C0.211,0.486 0.254,0.462 0.301,0.445C0.301,0.445 0.375,0.418 0.45,0.416C0.624,0.412 0.764,0.551 0.786,0.573C0.786,0.573 0.786,0.573 0.786,0.573C0.849,0.515 0.965,0.391 0.987,0.254Z" style="fill:url(#_Linear3);fill-rule:nonzero;"/>
                </g>
                <g transform="matrix(98.1365,0,0,-98.1365,1176.09,685.682)">
                    <path d="M0.922,0.42C0.974,0.337 1.003,0.239 1,0.134C0.995,-0.026 0.924,-0.171 0.817,-0.271C0.719,-0.362 0.591,-0.416 0.455,-0.411C0.352,-0.407 0.255,-0.378 0.173,-0.328C0.173,-0.328 0.173,-0.328 0.173,-0.328C0.04,-0.229 0,-0.075 0,0.103C0,0.206 0.028,0.302 0.078,0.384C0.169,0.36 0.304,0.344 0.456,0.344C0.671,0.344 0.854,0.376 0.922,0.42Z" style="fill:url(#_Linear4);fill-rule:nonzero;"/>
                </g>
                <g transform="matrix(1,0,0,1,1183.75,636.383)">
                    <path d="M0,11.577C-3.666,10.574 -6.581,9.423 -8.567,8.17C-10.479,6.954 -11.528,5.654 -11.528,4.29L-11.538,4.29L-11.538,-3.925L-10.628,-3.925L34.205,8.987C35.959,9.488 37.853,9.488 39.607,8.987L84.626,-3.981L85.749,-3.962L85.646,4.29C85.646,5.608 84.672,6.88 82.871,8.058C76.188,12.431 58.199,15.558 37.055,15.558C22.203,15.558 8.911,14.009 0,11.577" style="fill:rgb(2,0,49);fill-rule:nonzero;"/>
                </g>
                <g transform="matrix(1,0,0,1,1256.24,854.192)">
                    <path d="M0,-141.962C0,-141.962 1.931,-140.458 4.817,-137.785C2.209,-135.111 -14.536,-118.46 -35.514,-118.887C-44.48,-119.072 -53.4,-122.358 -53.4,-122.358C-58.998,-124.409 -64.168,-127.306 -68.726,-130.889C-76.253,-122.952 -85.35,-110.987 -87.392,-98.066C-89.898,-82.232 -90.595,-71.816 -87.55,-2.293C-87.54,-1.941 -87.466,-0.344 -87.457,0L-99.997,0C-99.997,0 -103.552,-76.578 -99.997,-99.375C-96.544,-121.569 -72.095,-140.932 -70.833,-141.916C-68.475,-139.864 -65.922,-137.998 -63.221,-136.356C-63.212,-136.356 -63.202,-136.347 -63.193,-136.337C-55.118,-131.445 -45.641,-128.522 -35.505,-128.169C-22.185,-127.704 -9.607,-133.014 0,-141.962" style="fill:rgb(255,218,60);fill-rule:nonzero;"/>
                </g>
                <g transform="matrix(1,0,0,1,1185.41,650.113)">
                    <path d="M0,62.162C-10.006,53.446 -16.688,41.203 -17.924,27.196C-18.062,25.637 -18.137,24.05 -18.137,22.444C-18.137,12.178 -15.241,2.59 -10.229,-5.561C-8.242,-4.308 -5.327,-3.156 -1.661,-2.153C-6.524,5.903 -9.318,15.334 -9.318,25.424C-9.318,42.948 -5.411,58.041 7.612,67.723C4.911,66.08 2.358,64.214 0,62.162" style="fill:rgb(255,218,60);fill-rule:nonzero;"/>
                </g>
            </g>
            <g transform="matrix(4.16667,0,0,4.16667,284.129,628.459)">
                <path d="M0,-9.765C0.502,-8.949 0.752,-8.141 0.947,-7.324C1.04,-6.925 1.096,-6.516 1.142,-6.108C1.179,-5.7 1.197,-5.291 1.197,-4.882C1.197,-4.076 1.123,-3.258 0.947,-2.442C0.762,-1.634 0.511,-0.817 0,0C-0.492,-0.817 -0.752,-1.634 -0.937,-2.442C-1.113,-3.258 -1.187,-4.076 -1.187,-4.882C-1.187,-5.7 -1.113,-6.516 -0.937,-7.324C-0.752,-8.131 -0.492,-8.949 0,-9.765Z" style="fill:none;fill-rule:nonzero;stroke:rgb(2,0,49);stroke-width:6.33px;stroke-linejoin:round;"/>
            </g>
            <g transform="matrix(4.16667,0,0,4.16667,279.412,584.215)">
                <path d="M0,-47.33C0.139,-47.813 0.575,-48.156 1.104,-48.175C1.764,-48.184 2.32,-47.664 2.329,-47.006L2.329,-46.94L2.32,-46.532L1.132,0.854L-0.056,-46.94C-0.056,-47.08 -0.037,-47.21 0,-47.33Z" style="fill:none;fill-rule:nonzero;stroke:rgb(2,0,49);stroke-width:6.33px;stroke-linejoin:round;"/>
            </g>
            <g transform="matrix(4.16667,0,0,4.16667,615.387,744.562)">
                <path d="M0,-13.115C0,-5.876 -10.34,0 -23.094,0C-35.856,0 -46.197,-5.876 -46.197,-13.115" style="fill:none;fill-rule:nonzero;stroke:rgb(2,0,49);stroke-width:6.33px;stroke-linejoin:round;"/>
            </g>
            <g transform="matrix(4.16667,0,0,4.16667,687.168,1321.88)">
                <path d="M0,-133.608C7.556,-126.619 21.6,-111.693 24.181,-95.198C27.727,-72.401 24.181,4.177 24.181,4.177L-104.823,4.177C-104.823,4.177 -108.378,-72.401 -104.823,-95.198C-101.37,-117.392 -76.921,-136.754 -75.659,-137.739C-75.621,-137.776 -75.603,-137.785 -75.603,-137.785" style="fill:none;fill-rule:nonzero;stroke:rgb(2,0,49);stroke-width:6.33px;stroke-linejoin:round;"/>
            </g>
            <g transform="matrix(3.14797,2.72972,2.72972,-3.14797,675.214,743.327)">
                <path d="M-0.779,-2.088C-0.779,-2.088 1.665,-1.96 5.596,-2.088" style="fill:none;fill-rule:nonzero;stroke:rgb(2,0,49);stroke-width:6.33px;stroke-linejoin:round;"/>
            </g>
            <g transform="matrix(4.16667,0,0,4.16667,722.479,449.622)">
                <path d="M0,-11.928L-0.046,-8.252L-0.148,0" style="fill:none;fill-rule:nonzero;stroke:rgb(2,0,49);stroke-width:6.33px;stroke-linejoin:round;"/>
            </g>
            <g transform="matrix(3.5252,-2.22128,-2.22128,-3.5252,476.772,719.031)">
                <path d="M-21.516,-1.222C-22.925,1.608 -24.09,4.547 -24.991,7.54C-28.811,20.248 -27.938,34.17 -21.516,46.678C-20.802,48.072 -20.018,49.454 -19.163,50.812C-13.689,59.498 -6.129,66.067 2.457,70.29" style="fill:none;fill-rule:nonzero;stroke:rgb(2,0,49);stroke-width:6.33px;stroke-linejoin:round;"/>
            </g>
            <g transform="matrix(-4.11869,-0.63049,-0.63049,4.11869,412.378,784.511)">
                <path d="M-59.085,-86.542C-65.331,-79.234 -69.588,-70.138 -70.837,-59.898C-72.738,-44.291 -67.998,-29.245 -59.085,-17.965C-50.943,-7.666 -39.313,-0.514 -26.076,1.042C-16.004,2.228 -6.193,0.772 2.529,-2.842" style="fill:none;fill-rule:nonzero;stroke:rgb(2,0,49);stroke-width:6.33px;stroke-linejoin:round;"/>
            </g>
            <g transform="matrix(4.16667,0,0,4.16667,316.925,449.62)">
                <path d="M0,-11.909L0,0" style="fill:none;fill-rule:nonzero;stroke:rgb(2,0,49);stroke-width:6.33px;stroke-linejoin:round;"/>
            </g>
            <g transform="matrix(4.16667,0,0,4.16667,721.86,496.575)">
                <path d="M0,-11.269C0,-9.951 -0.975,-8.679 -2.775,-7.5C-9.458,-3.128 -27.447,0 -48.592,0C-63.443,0 -76.735,-1.55 -85.646,-3.982C-89.313,-4.985 -92.228,-6.136 -94.214,-7.389C-96.126,-8.605 -97.175,-9.905 -97.175,-11.269" style="fill:none;fill-rule:nonzero;stroke:rgb(2,0,49);stroke-width:6.33px;stroke-linejoin:round;"/>
            </g>
            <g transform="matrix(4.16667,0,0,4.16667,722.402,237.789)">
                <path d="M0,38.866L26.761,29.593C28.58,28.971 28.58,26.4 26.761,25.768L-45.993,0.558C-47.775,-0.064 -49.725,-0.064 -51.507,0.558L-124.26,25.768C-126.07,26.4 -126.07,28.971 -124.26,29.593L-106.317,35.812L-103.997,36.61L-97.314,38.93" style="fill:none;fill-rule:nonzero;stroke:rgb(2,0,49);stroke-width:6.33px;stroke-linejoin:round;"/>
            </g>
            <g transform="matrix(4.16667,0,0,4.16667,320.717,471.046)">
                <path d="M0,-13.357L44.833,-0.445C46.587,0.056 48.48,0.056 50.235,-0.445L95.254,-13.413" style="fill:none;fill-rule:nonzero;stroke:white;stroke-width:4.22px;stroke-linecap:round;stroke-linejoin:round;"/>
            </g>
            <g transform="matrix(4.16667,0,0,4.16667,-104.246,529.714)">
                <path d="M0,-12.36L11.676,-12.36L11.676,0" style="fill:none;fill-rule:nonzero;stroke:rgb(2,0,49);stroke-width:4.22px;"/>
            </g>
            <g transform="matrix(4.16667,0,0,4.16667,543.601,-9.49976)">
                <path d="M0,0L94.013,0" style="fill:none;fill-rule:nonzero;stroke:rgb(2,0,49);stroke-width:6.33px;"/>
            </g>
            <g transform="matrix(0,4.16667,4.16667,0,413.715,-97.1314)">
                <g>
                    <path d="M-8.026,-8.026L8.026,-8.026" style="fill:none;fill-rule:nonzero;stroke:white;stroke-width:6.33px;stroke-linecap:round;"/>
                </g>
            </g>
            <g transform="matrix(0,4.16667,4.16667,0,386.18,-164.794)">
                <g>
                    <path d="M-1.417,-1.417L1.417,-1.417" style="fill:none;fill-rule:nonzero;stroke:white;stroke-width:6.33px;stroke-linecap:round;"/>
                </g>
            </g>
        </g>
    </g>
    <defs>
        <linearGradient id="_Linear1" x1="0" y1="0" x2="1" y2="0" gradientUnits="userSpaceOnUse" gradientTransform="matrix(1,0,0,-1,0,-8.07976e-06)"><stop offset="0" style="stop-color:rgb(121,192,253);stop-opacity:1"/><stop offset="1" style="stop-color:rgb(182,224,255);stop-opacity:1"/></linearGradient>
        <linearGradient id="_Linear2" x1="0" y1="0" x2="1" y2="0" gradientUnits="userSpaceOnUse" gradientTransform="matrix(1,0,0,-1,0,-1.11964e-05)"><stop offset="0" style="stop-color:rgb(155,175,57);stop-opacity:1"/><stop offset="0" style="stop-color:rgb(155,175,57);stop-opacity:1"/><stop offset="1" style="stop-color:rgb(195,207,136);stop-opacity:1"/></linearGradient>
        <linearGradient id="_Linear3" x1="0" y1="0" x2="1" y2="0" gradientUnits="userSpaceOnUse" gradientTransform="matrix(1,0,0,-1,0,-4.37947e-05)"><stop offset="0" style="stop-color:rgb(255,218,60);stop-opacity:1"/><stop offset="0" style="stop-color:rgb(255,218,60);stop-opacity:1"/><stop offset="1" style="stop-color:rgb(255,233,138);stop-opacity:1"/></linearGradient>
        <linearGradient id="_Linear4" x1="0" y1="0" x2="1" y2="0" gradientUnits="userSpaceOnUse" gradientTransform="matrix(1,0,0,-1,0,0.00443777)"><stop offset="0" style="stop-color:rgb(255,218,60);stop-opacity:1"/><stop offset="0" style="stop-color:rgb(255,218,60);stop-opacity:1"/><stop offset="1" style="stop-color:rgb(255,233,138);stop-opacity:1"/></linearGradient>
    </defs>
</svg>
